<svg xmlns="http://www.w3.org/2000/svg" width="50" height="36.125" viewBox="0 0 50 36.125">
  <defs>
    <style>
      .cls-1 {
        fill: #d24d47;
        fill-rule: evenodd;
      }
    </style>
  </defs>
  <path id="Transport" class="cls-1" d="M759.773,747h20.755A3.741,3.741,0,0,1,784.3,750.7V773.87a3.741,3.741,0,0,1-3.774,3.706H759.773A3.74,3.74,0,0,1,756,773.87V750.7A3.74,3.74,0,0,1,759.773,747Zm19.812,7.413h13.207c0.978,0,4.717,5.559,8.491,10.193,1.886,0.926,4.717,1.852,4.717,3.623V774.8q0,2.781-2.831,2.78H779.585V754.411Zm6.6,1.854h5.661c1.835,2.25,6.6,7.413,6.6,7.413a0.935,0.935,0,0,1-.943.926H786.188a0.935,0.935,0,0,1-.943-0.926v-6.487A0.934,0.934,0,0,1,786.188,756.265Zm-16.981,13.9a7.414,7.414,0,1,1-7.547,7.413A7.481,7.481,0,0,1,769.207,770.163Zm0,1.853a5.56,5.56,0,1,1-5.66,5.56A5.61,5.61,0,0,1,769.207,772.016Zm0,2.78a2.78,2.78,0,1,1-2.83,2.78A2.806,2.806,0,0,1,769.207,774.8Zm22.642-4.633a7.414,7.414,0,1,1-7.547,7.413A7.481,7.481,0,0,1,791.849,770.163Zm0,1.853a5.56,5.56,0,1,1-5.661,5.56A5.61,5.61,0,0,1,791.849,772.016Zm0,2.78a2.78,2.78,0,1,1-2.83,2.78A2.806,2.806,0,0,1,791.849,774.8Zm-28.43-18.356-1.607,1.568,5.894,5.615s4.811-8.016,10.019-11.686a8.917,8.917,0,0,0-.849-1.148,51.5,51.5,0,0,0-9.631,8.786Z" transform="translate(-756 -747)"/>
</svg>
