<svg xmlns="http://www.w3.org/2000/svg" width="33" height="25" viewBox="0 0 33 25">
  <defs>
    <style>
      .cls-1 {
        fill: #d24d47;
        fill-rule: evenodd;
      }
    </style>
  </defs>
  <path id="Cart_Icon" data-name="Cart Icon" class="cls-1" d="M1543.59,27.179l4.5,0.063,5.28,14.744a1.667,1.667,0,0,0,.36.576c0.29,0.332.21,0.452,0.37,0.585l15.26-.045c0.17-.485.22-0.767,0.55-1.579a4.585,4.585,0,0,0,.59-1.614l-14.54-.042-0.74-2.077,16.1,0c0.22-.629.43-0.868,0.72-1.623a4.806,4.806,0,0,0,.59-1.629l-18.57.021-0.81-2.261h20.33c0.26-.66.33-0.477,0.67-1.37,0.31-.834.56-1.195,0.75-1.9l-22.91.04-1.42-3.975a1.577,1.577,0,0,0-1.44-1.058,1.482,1.482,0,0,0-.24-0.019l-6.96.023a4.358,4.358,0,0,0,.74,1.735A9.115,9.115,0,0,0,1543.59,27.179Zm22.51,17.2a2.318,2.318,0,1,0,2.25,2.316A2.286,2.286,0,0,0,1566.1,44.378Zm-11.71-.046a2.317,2.317,0,1,0,2.26,2.316A2.286,2.286,0,0,0,1554.39,44.332Z" transform="translate(-1542 -24)"/>
</svg>
