<svg xmlns="http://www.w3.org/2000/svg" width="19" height="14" viewBox="0 0 19 14">
  <defs>
    <style>
      .cls-1 {
        fill: #d24d47;
        fill-rule: evenodd;
      }
    </style>
  </defs>
  <path id="email" class="cls-1" d="M335.781,324h15.437a1.766,1.766,0,0,1,1.782,1.75v10.5a1.767,1.767,0,0,1-1.782,1.75H335.781a1.766,1.766,0,0,1-1.781-1.75v-10.5A1.765,1.765,0,0,1,335.781,324Zm8.312,8.939v0.394h-1.187v-0.394l-7.717-7.029,0.755-.742,7.556,6.882,7.555-6.882,0.755,0.742Zm-3.568-.923-4.9,4.811-0.434-.427,4.9-4.812Zm11.282,4.384-0.435.427-4.9-4.811,0.435-.428Z" transform="translate(-334 -324)"/>
</svg>
