<svg xmlns="http://www.w3.org/2000/svg" width="16.84" height="17.406" viewBox="0 0 16.84 17.406">
  <defs>
    <style>
      .cls-1 {
        fill: #fc3027;
        fill-rule: evenodd;
      }
    </style>
  </defs>
  <path id="Edit_File" data-name="Edit File" class="cls-1" d="M1176.55,108h11.32a1.075,1.075,0,0,1,.9.6v16.21a1.073,1.073,0,0,1-.9.6h-11.32a0.6,0.6,0,0,1-.55-0.562V108.56A0.6,0.6,0,0,1,1176.55,108Zm9.9,10.206v1.2h-8.13v-1.2h8.13Zm0-2.4V117h-8.13v-1.2h8.13Zm-3.48,4.8v1.2h-4.65v-1.2h4.65Zm3.48-7.2v1.2h-8.13v-1.2h8.13Zm0-2.4v1.2h-8.13V111h8.13Zm3.48,5.4-5.8,6v3.6h4.06l5.81-6Zm-5.1,9.005v-2.527l2.49,2.527h-2.49Zm2.78-.6,5.23-5.4-2.32-2.4-5.23,5.4Z" transform="translate(-1176 -108)"/>
</svg>
