<svg xmlns="http://www.w3.org/2000/svg" width="19" height="19" viewBox="0 0 19 19">
  <defs>
    <style>
      .cls-1 {
        fill: #d24d47;
        fill-rule: evenodd;
      }
    </style>
  </defs>
  <path class="cls-1" d="M583.453,332.517a8.846,8.846,0,0,0,.21-1.917,9,9,0,0,0-9.062-8.936,9.211,9.211,0,0,0-1.55.131,5.283,5.283,0,0,0-2.8-.8A5.219,5.219,0,0,0,565,326.181a5.11,5.11,0,0,0,.722,2.622,8.86,8.86,0,0,0-.183,1.8,9,9,0,0,0,9.062,8.936,9.248,9.248,0,0,0,1.659-.15,5.294,5.294,0,0,0,2.485.615A5.219,5.219,0,0,0,584,334.818,5.1,5.1,0,0,0,583.453,332.517Zm-4.2,2.353a4.133,4.133,0,0,1-1.841,1.377,7.474,7.474,0,0,1-2.832.491,7,7,0,0,1-3.245-.671,4.239,4.239,0,0,1-1.492-1.306,2.823,2.823,0,0,1-.58-1.614,1.113,1.113,0,0,1,.378-0.844,1.342,1.342,0,0,1,.946-0.347,1.21,1.21,0,0,1,.8.274,2.04,2.04,0,0,1,.532.765,4.458,4.458,0,0,0,.52.911,2.008,2.008,0,0,0,.76.579,3.166,3.166,0,0,0,1.316.231,3.23,3.23,0,0,0,1.826-.469,1.308,1.308,0,0,0,.67-1.115,1.087,1.087,0,0,0-.35-0.847,2.469,2.469,0,0,0-.967-0.526c-0.412-.127-0.971-0.264-1.662-0.406a13.486,13.486,0,0,1-2.368-.7l-0.007,0a3.912,3.912,0,0,1-1.557-1.123,2.765,2.765,0,0,1-.586-1.791,2.877,2.877,0,0,1,.615-1.808,3.823,3.823,0,0,1,1.759-1.2,7.775,7.775,0,0,1,2.659-.414,7.256,7.256,0,0,1,2.115.275,4.707,4.707,0,0,1,1.5.735,3.208,3.208,0,0,1,.881.977,2.133,2.133,0,0,1,.284,1.02,1.208,1.208,0,0,1-.372.862,1.253,1.253,0,0,1-.931.383,1.15,1.15,0,0,1-.78-0.24,2.863,2.863,0,0,1-.541-0.71,2.956,2.956,0,0,0-.813-0.992,2.585,2.585,0,0,0-1.513-.344,2.864,2.864,0,0,0-1.57.382,1.021,1.021,0,0,0-.562.857,0.777,0.777,0,0,0,.181.519,1.6,1.6,0,0,0,.54.4,4.031,4.031,0,0,0,.729.279c0.252,0.069.675,0.171,1.254,0.3,0.611,0.129,1.179.272,1.7,0.424,0.1,0.031.207,0.061,0.307,0.093a6.482,6.482,0,0,1,1.55.7,3.061,3.061,0,0,1,1.021,1.064,3.139,3.139,0,0,1,.369,1.573A3.361,3.361,0,0,1,579.249,334.87Z" transform="translate(-565 -321)"/>
</svg>
