<svg xmlns="http://www.w3.org/2000/svg" width="19" height="19" viewBox="0 0 19 19">
  <defs>
    <style>
      .cls-1 {
        fill: #d24d47;
        fill-rule: evenodd;
      }
    </style>
  </defs>
  <path id="_67_копия" data-name="67 копия" class="cls-1" d="M1533.5,1125a9.5,9.5,0,1,0,9.5,9.5A9.5,9.5,0,0,0,1533.5,1125Zm0,15.98c-4.2,0-6.48-2.59-6.48-6.48,0-4.2,2.28-6.48,6.48-6.48s6.48,2.28,6.48,6.48S1537.7,1140.98,1533.5,1140.98Zm0.5-6.98,0.45-4.25a0.95,0.95,0,0,0-1.9,0l-1.12,4.75a0.277,0.277,0,0,0,.01.09v0.04c0,0.02.56,0.35,0.56,0.37s-0.54-.29-0.54-0.27a0.075,0.075,0,0,1,.01.05c0.01,0.01.01,0.02,0.02,0.03a0.076,0.076,0,0,0,.02.05,0.227,0.227,0,0,0,.01.04,0.219,0.219,0,0,1,.03.05c0,0.01.01,0.02,0.01,0.03a0.219,0.219,0,0,1,.03.05l0.03,0.03c0.01,0.01.02,0.03,0.03,0.04s0.02,0.03.03,0.04l0.03,0.03,4.48,3.36a0.948,0.948,0,1,0,1.34-1.34Z" transform="translate(-1524 -1125)"/>
</svg>
