<svg xmlns="http://www.w3.org/2000/svg" width="18" height="18" viewBox="0 0 18 18">
  <defs>
    <style>
      .cls-1 {
        fill: #fff;
        fill-rule: evenodd;
      }
    </style>
  </defs>
  <path id="wallet" class="cls-1" d="M1044,488a2.833,2.833,0,0,1-2-2h0a2.834,2.834,0,0,1,2-2h7v4h-7Zm-3-3v2c0,1.1,1.97,2,3,2h6v2a2.146,2.146,0,0,1-2.1,2h-13.04a1.932,1.932,0,0,1-1.86-2V478.333a2.376,2.376,0,0,1,2-2.333h6l-1.62.986L1035,477a1,1,0,1,0,0,2l14.76-.013V483h-6.21C1042.52,483,1041,483.9,1041,485Zm-5.52-4.667h-1.24v1.333h0.62V481h0.62v-0.666Zm0,2h-1.24v1.333h0.65l-0.03-.667,0.62,0.015v-0.681Zm0,2h-1.24v1.333h0.63l-0.01-.667h0.62v-0.666Zm0,2h-1.24v1.333h0.63l-0.01-.667,0.62,0.014v-0.68Zm0,2h-1.24v1.334h0.62V489h0.62v-0.667Zm0,2h-1.24v1.333h0.63l-0.01-.653h0.62v-0.68Zm2.49-12.042L1045,475l1.66,3.291h-8.69ZM1046,476h2a2.029,2.029,0,0,1,1.26.986h-2.53Z" transform="translate(-1033 -475)"/>
</svg>
