<svg xmlns="http://www.w3.org/2000/svg" width="44" height="39" viewBox="0 0 44 39">
  <defs>
    <style>
      .cls-1 {
        fill: #d24d47;
        fill-rule: evenodd;
      }
    </style>
  </defs>
  <path class="cls-1" d="M1318.89,775.579c-0.73-2.026-3.14-2.316-5.16-3.132-2.22-.894-4.68-1.934-6.89-2.8l-1.9-.5c-0.75-.5-1.49-2.145-1.89-2.966l-1.21-.165c0.07-1.269.89-1.337,1.21-2.307,0.28-.855.03-1.967,0.48-2.759,0.31-.55,1.02-0.553,1.37-1.025a4.6,4.6,0,0,0,.63-1.7,5.364,5.364,0,0,0-.13-3.218,2.736,2.736,0,0,1-.52-1.26c-0.09-.8.25-3.421,0.26-3.987a7.746,7.746,0,0,0-.37-3.018,3.736,3.736,0,0,0-1.16-1.687l-1.41-.232-0.87-.773c-3.51-2.066-7.27-.617-9.29.165-2.9.9-4.74,3.623-3.46,9.436,0.22,0.993-.56,1.437-0.51,1.978,0.11,1.185.13,4.034,1.3,4.735a3.337,3.337,0,0,0,.94.21c0.11,1.153.23,2.308,0.34,3.461,0.29,0.767.99,0.852,1.2,1.934l-0.9.209c-0.4.821-1.14,2.469-1.89,2.966l-1.9.5c-2.21.868-4.67,1.908-6.89,2.8-2.02.816-4.43,1.106-5.16,3.132,0,1.376-.14,4.625-0.1,6.428h19.3l1.42-9.265-1.18-2.38,2.72-1.248,2.29,1.222-1.26,2.451,2.23,9.22h18.46C1319.03,780.2,1318.89,776.955,1318.89,775.579Z" transform="translate(-1275 -743)"/>
</svg>
