<svg xmlns="http://www.w3.org/2000/svg" width="45" height="45.062" viewBox="0 0 45 45.062">
  <defs>
    <style>
      .cls-1 {
        fill: #d24d47;
        fill-rule: evenodd;
      }
    </style>
  </defs>
  <path id="Forma_1" data-name="Forma 1" class="cls-1" d="M268.163,755.815a0.965,0.965,0,0,0,1.365,0l11.189-11.189a0.965,0.965,0,0,0-1.364-1.365l-11.19,11.189A0.965,0.965,0,0,0,268.163,755.815Zm9.67,8.463-1.227-13.493-3.369,3.369a4.1,4.1,0,1,1-3.413-3.411l3.37-3.37L259.7,746.146a1.8,1.8,0,0,0-1.433.519L236.5,768.428a1.8,1.8,0,0,0,0,2.539l4.841,4.841,2.389-2.388,6.825,6.824-2.389,2.388,4.841,4.841a1.8,1.8,0,0,0,2.54,0l21.765-21.763A1.8,1.8,0,0,0,277.833,764.278Z" transform="translate(-236 -742.969)"/>
</svg>
