<svg xmlns="http://www.w3.org/2000/svg" width="52.969" height="42" viewBox="0 0 52.969 42">
  <defs>
    <style>
      .cls-1 {
        fill: #d24d47;
        fill-rule: evenodd;
      }
    </style>
  </defs>
  <path id="Forma_1_копия" data-name="Forma 1 копия" class="cls-1" d="M794.169,1344.79H742.825a0.805,0.805,0,1,1,0-1.61h51.344A0.805,0.805,0,1,1,794.169,1344.79Zm-20.348,20.22a0.81,0.81,0,0,1-.574-1.38l19.774-19.65-19.774-19.63a0.809,0.809,0,0,1,1.147-1.14l20.347,20.2a0.821,0.821,0,0,1,.237.57,0.836,0.836,0,0,1-.237.58l-20.347,20.21A0.8,0.8,0,0,1,773.821,1365.01Z" transform="translate(-742 -1323)"/>
</svg>
