<svg xmlns="http://www.w3.org/2000/svg" width="26" height="20" viewBox="0 0 26 20">
  <defs>
    <style>
      .cls-1 {
        fill: #fff;
        fill-rule: evenodd;
      }
    </style>
  </defs>
  <path id="Cart_Icon_копия" data-name="Cart Icon копия" class="cls-1" d="M888.255,539.543l3.546,0.05,4.16,11.8a1.312,1.312,0,0,0,.28.461c0.227,0.265.163,0.361,0.293,0.468l12.019-.036c0.135-.388.175-0.614,0.435-1.263a3.512,3.512,0,0,0,.464-1.291L898,549.694l-0.586-1.662,12.682,0c0.179-.5.338-0.695,0.569-1.3a3.748,3.748,0,0,0,.462-1.3l-14.626.016-0.638-1.809h16.014c0.209-.528.264-0.382,0.526-1.1a16.17,16.17,0,0,0,.594-1.524l-18.046.032-1.122-3.18a1.243,1.243,0,0,0-1.131-.846,1.2,1.2,0,0,0-.191-0.016l-5.483.019a3.465,3.465,0,0,0,.582,1.388A6.766,6.766,0,0,0,888.255,539.543Zm17.734,13.76a1.855,1.855,0,1,0,1.773,1.853A1.814,1.814,0,0,0,905.989,553.3Zm-9.223-.037a1.855,1.855,0,1,0,1.773,1.853A1.815,1.815,0,0,0,896.766,553.266Z" transform="translate(-887 -537)"/>
</svg>
