<svg xmlns="http://www.w3.org/2000/svg" width="13" height="16.16" viewBox="0 0 13 16.16">
  <defs>
    <style>
      .cls-1 {
        fill: #d24d47;
        fill-rule: evenodd;
      }
    </style>
  </defs>
  <path id="Shape_332_copy" data-name="Shape 332 copy" class="cls-1" d="M1720.02,2689.83a1.687,1.687,0,0,1,.76.42l4.7,4.71a1.744,1.744,0,0,1,0,2.45,1.714,1.714,0,0,1-2.44,0l-2-2v9.09a1.5,1.5,0,1,1-3,0v-9.19l-2.1,2.1a1.714,1.714,0,0,1-2.44,0,1.744,1.744,0,0,1,0-2.45l4.7-4.71a1.687,1.687,0,0,1,.76-0.42" transform="translate(-1713 -2689.84)"/>
</svg>
